<?xml version="1.0" encoding="UTF-8"?><svg id="uuid-beb590f7-7fd5-44a6-bfa7-bf4d89999670" xmlns="http://www.w3.org/2000/svg" viewBox="0 0 432 66.55"><path d="M378.03,64.71V1.83h10.74v8.06c3.54-6.11,10.99-9.89,19.41-9.89,13.8,0,23.81,7.33,23.81,26.25v38.46h-10.99V27.84c0-11.72-5.74-17.46-15.26-17.46-10.75,0-16.73,7.33-16.73,17.83v36.51h-10.99Z" style="fill:#7132f5;"/><path d="M340.18,66.55c-19.41,0-31.75-13.06-31.75-33.58S321.01,0,339.2,0s30.77,12.21,30.77,29.67c0,5.01,0,6.11-.24,7.2h-49.82c.73,12.33,8.43,19.9,20.39,19.9,8.43,0,14.29-3.66,17.22-10.38h11.36c-3.3,12.58-13.92,20.15-28.69,20.15ZM319.91,27.84h38.46c-.49-11.23-7.81-18.19-19.17-18.19s-18.07,6.72-19.29,18.19Z" style="fill:#7132f5;"/><path d="M211.63,66.55c-12.7,0-21.98-6.84-21.98-18.68s8.43-17.22,18.32-19.05l15.38-2.93c5.25-.98,8.3-2.32,8.3-7.08,0-5.49-4.64-9.16-13.92-9.16-7.57,0-14.16,3.05-15.02,10.01h-11.36c.73-12.33,11.97-19.66,26.5-19.66,17.58,0,24.79,8.79,24.79,19.17v32.23c0,2.93,1.34,4.4,3.79,4.4,2.08,0,3.3-.49,4.4-1.22v8.91c-1.71,1.47-4.64,2.44-8.18,2.44-5.13,0-9.52-3.3-10.62-8.67-2.93,4.15-9.04,9.28-20.39,9.28ZM201.01,47.5c0,6.35,5.37,9.4,12.58,9.4,10.13,0,18.07-5.74,18.07-14.65v-10.13c-1.22,1.34-5.01,2.44-9.52,3.3l-10.26,1.95c-7.33,1.34-10.87,4.52-10.87,10.13Z" style="fill:#7132f5;"/><path d="M156.64,64.71V1.83h10.74v10.5c3.05-7.45,8.55-11.84,17.22-11.84,1.83,0,3.66.37,4.64.61v11.23c-.98-.24-3.05-.61-5.13-.61-10.75,0-16.48,8.43-16.48,21.86v31.14h-10.99Z" style="fill:#7132f5;"/><path d="M137.38,1.83h14.16l-25.4,24.91,26.74,37.97h-12.82l-21.37-30.4-10.5,10.01v20.39h-10.99V1.83h10.99v28.82L137.38,1.83Z" style="fill:#7132f5;"/><path d="M296.09,1.83h14.16l-25.4,24.91,26.74,37.97h-12.82l-21.37-30.4-10.5,10.01v20.39h-10.99V1.83h10.99v28.82l29.18-28.82Z" style="fill:#7132f5;"/><path d="M41.81,0C18.72,0,0,18.96,0,42.35v18.15c0,3.34,2.67,6.04,5.97,6.04s5.99-2.7,5.99-6.04v-18.15c0-3.35,2.66-6.05,5.97-6.05s5.97,2.7,5.97,6.05v18.15c0,3.34,2.67,6.04,5.97,6.04s5.98-2.7,5.98-6.04v-18.15c0-3.35,2.67-6.05,5.97-6.05s5.99,2.7,5.99,6.05v18.15c0,3.34,2.67,6.04,5.97,6.04s5.97-2.7,5.97-6.04v-18.15c0-3.35,2.67-6.05,5.99-6.05s5.97,2.7,5.97,6.05v18.15c0,3.34,2.67,6.04,5.98,6.04s5.97-2.7,5.97-6.04v-18.15C83.63,18.96,64.91,0,41.81,0Z" style="fill:#7132f5;"/></svg>